<svg width="42" height="42" viewBox="0 0 42 42" fill="none" xmlns="http://www.w3.org/2000/svg">
<circle cx="21" cy="21" r="21" fill="#DDDDDD" fill-opacity="0.8"/>
<path d="M19.5801 26.3168L17.1489 28.7467C16.8973 29.02 16.5931 29.2397 16.2545 29.3925C15.9158 29.5453 15.5498 29.628 15.1784 29.6359C14.807 29.6437 14.4378 29.5764 14.0931 29.438C13.7483 29.2996 13.4351 29.0929 13.1722 28.8305C12.9093 28.568 12.7022 28.2551 12.5632 27.9106C12.4242 27.5661 12.3563 27.1971 12.3636 26.8257C12.3708 26.4543 12.453 26.0882 12.6053 25.7493C12.7576 25.4105 12.9767 25.1059 13.2497 24.8539L18.1928 19.9122C18.7104 19.3905 19.4138 19.0953 20.1487 19.0913C20.8837 19.0873 21.5902 19.3748 22.1135 19.8907C22.1788 19.962 22.2578 20.0193 22.3458 20.0591C22.4338 20.099 22.529 20.1207 22.6256 20.1228C22.7222 20.1249 22.8182 20.1074 22.9079 20.0715C22.9975 20.0355 23.079 19.9817 23.1473 19.9134C23.2156 19.8451 23.2694 19.7636 23.3054 19.674C23.3414 19.5843 23.3588 19.4883 23.3567 19.3917C23.3546 19.2951 23.333 19.2 23.2931 19.112C23.2532 19.024 23.1959 18.945 23.1246 18.8797C22.3332 18.096 21.2631 17.6581 20.1492 17.6621C19.0353 17.6662 17.9685 18.1117 17.1827 18.9012L12.2386 23.8418C11.4494 24.6274 11.0041 25.6937 11 26.8071C10.996 27.9205 11.4337 28.9901 12.2171 29.7813C12.6044 30.1691 13.0646 30.4764 13.5711 30.6857C14.0776 30.895 14.6206 31.0021 15.1686 31.0009C15.7241 31.0014 16.2742 30.8921 16.7874 30.6795C17.3006 30.4669 17.7667 30.1551 18.159 29.7619L20.5902 27.3319C20.6614 27.2666 20.7186 27.1875 20.7584 27.0995C20.7982 27.0114 20.8198 26.9163 20.8218 26.8197C20.8238 26.7231 20.8062 26.6271 20.7701 26.5375C20.7341 26.4478 20.6802 26.3665 20.6118 26.2982C20.5434 26.23 20.4619 26.1763 20.3722 26.1404C20.2825 26.1045 20.1865 26.0871 20.0899 26.0893C19.9933 26.0915 19.8982 26.1133 19.8102 26.1533C19.7222 26.1932 19.6433 26.2506 19.5781 26.3219L19.5801 26.3168Z" fill="#191919" stroke="#191919"/>
<path d="M23.8534 12.2289L21.4233 14.6589C21.3567 14.7253 21.304 14.8042 21.2679 14.8911C21.2319 14.978 21.2133 15.071 21.2133 15.1651C21.2132 15.2591 21.2317 15.3522 21.2677 15.4391C21.3036 15.526 21.3563 15.6049 21.4228 15.6715C21.4892 15.738 21.5681 15.7908 21.655 15.8268C21.7418 15.8628 21.8349 15.8814 21.929 15.8814C22.023 15.8815 22.1161 15.863 22.203 15.8271C22.2899 15.7911 22.3689 15.7384 22.4354 15.672L24.8666 13.242C25.1176 12.9662 25.4219 12.7442 25.7611 12.5894C26.1004 12.4346 26.4675 12.3502 26.8403 12.3413C27.2131 12.3325 27.5838 12.3993 27.93 12.5378C28.2762 12.6763 28.5908 12.8835 28.8546 13.1471C29.1184 13.4106 29.326 13.7249 29.4649 14.0709C29.6038 14.417 29.671 14.7876 29.6625 15.1604C29.654 15.5332 29.57 15.9003 29.4155 16.2397C29.2611 16.5791 29.0394 16.8836 28.7638 17.1349L23.8769 22.0193C23.36 22.5421 22.6565 22.8382 21.9212 22.8424C21.186 22.8466 20.4791 22.5587 19.9562 22.0418C19.8204 21.9171 19.6416 21.8497 19.4573 21.8535C19.273 21.8574 19.0972 21.9322 18.9667 22.0625C18.8362 22.1927 18.761 22.3683 18.7568 22.5526C18.7526 22.7369 18.8196 22.9157 18.944 23.0518C19.331 23.4401 19.7911 23.7478 20.2977 23.9571C20.8043 24.1665 21.3474 24.2733 21.8956 24.2714H21.915C22.4677 24.2699 23.0146 24.1595 23.5245 23.9466C24.0345 23.7336 24.4975 23.4223 24.887 23.0303L29.7739 18.1449C30.1626 17.7562 30.4709 17.2948 30.6813 16.787C30.8916 16.2792 30.9999 15.735 30.9999 15.1854C30.9999 14.6357 30.8916 14.0915 30.6813 13.5837C30.4709 13.0759 30.1626 12.6145 29.7739 12.2259C29.3852 11.8372 28.9238 11.5289 28.416 11.3186C27.9081 11.1083 27.3639 11 26.8142 11C26.2645 11 25.7202 11.1083 25.2124 11.3186C24.7045 11.5289 24.2431 11.8372 23.8544 12.2259V12.2289H23.8534Z" fill="#191919" stroke="#191919"/>
</svg>
