<svg width="483" height="96" viewBox="0 0 483 96" fill="none" xmlns="http://www.w3.org/2000/svg">
<path d="M1 48C1 22.0426 22.0426 1 48 1H370.335C387.318 1 404.016 5.36897 418.822 13.6869L467.251 40.8926C476.361 46.0101 482 55.6455 482 66.0942C482 82.0584 469.058 95 453.094 95H48C22.0426 95 1 73.9574 1 48Z" stroke="url(#paint0_linear_817_12903)" stroke-width="2"/>
<path opacity="0.3" d="M191.472 43C191.396 42.053 191.041 41.3144 190.406 40.7841C189.781 40.2538 188.829 39.9886 187.551 39.9886C186.737 39.9886 186.069 40.0881 185.548 40.2869C185.037 40.4763 184.658 40.7367 184.412 41.0682C184.166 41.3996 184.038 41.7784 184.028 42.2045C184.009 42.5549 184.071 42.8722 184.213 43.1562C184.364 43.4309 184.601 43.6818 184.923 43.9091C185.245 44.1269 185.657 44.3258 186.159 44.5057C186.661 44.6856 187.257 44.8466 187.949 44.9886L190.335 45.5C191.945 45.8409 193.323 46.2907 194.469 46.8494C195.614 47.4081 196.552 48.0663 197.281 48.8239C198.01 49.572 198.545 50.4148 198.886 51.3523C199.237 52.2898 199.417 53.3125 199.426 54.4205C199.417 56.3333 198.938 57.9527 197.991 59.2784C197.044 60.6042 195.69 61.6127 193.929 62.304C192.177 62.9953 190.07 63.3409 187.608 63.3409C185.079 63.3409 182.873 62.9669 180.989 62.2188C179.114 61.4706 177.655 60.3201 176.614 58.767C175.581 57.2045 175.061 55.2064 175.051 52.7727H182.551C182.598 53.6629 182.821 54.411 183.219 55.017C183.616 55.6231 184.175 56.0824 184.895 56.3949C185.624 56.7074 186.49 56.8636 187.494 56.8636C188.337 56.8636 189.043 56.7595 189.611 56.5511C190.179 56.3428 190.61 56.054 190.903 55.6847C191.197 55.3153 191.348 54.8939 191.358 54.4205C191.348 53.9754 191.202 53.5871 190.918 53.2557C190.643 52.9148 190.188 52.6117 189.554 52.3466C188.919 52.072 188.062 51.8163 186.983 51.5795L184.085 50.9545C181.509 50.3958 179.478 49.4631 177.991 48.1562C176.514 46.84 175.78 45.0455 175.79 42.7727C175.78 40.9261 176.273 39.3116 177.267 37.929C178.271 36.5369 179.658 35.4527 181.429 34.6761C183.209 33.8996 185.25 33.5114 187.551 33.5114C189.9 33.5114 191.931 33.9044 193.645 34.6903C195.359 35.4763 196.68 36.5843 197.608 38.0142C198.545 39.4347 199.019 41.0966 199.028 43H191.472ZM201.795 40.2727V33.9091H227.079V40.2727H218.329V63H210.545V40.2727H201.795ZM234.096 63H225.573L235.176 33.9091H245.971L255.573 63H247.051L240.687 41.9205H240.46L234.096 63ZM232.505 51.5227H248.528V57.4318H232.505V51.5227ZM258.535 63V33.9091H271.092C273.251 33.9091 275.14 34.3021 276.76 35.0881C278.379 35.8741 279.639 37.0057 280.538 38.483C281.438 39.9602 281.888 41.7311 281.888 43.7955C281.888 45.8788 281.424 47.6354 280.496 49.0653C279.577 50.4953 278.284 51.5748 276.618 52.304C274.961 53.0331 273.024 53.3977 270.808 53.3977H263.308V47.2614H269.217C270.145 47.2614 270.936 47.1477 271.589 46.9205C272.252 46.6837 272.759 46.3097 273.109 45.7983C273.469 45.2869 273.649 44.6193 273.649 43.7955C273.649 42.9621 273.469 42.285 273.109 41.7642C272.759 41.2339 272.252 40.8456 271.589 40.5994C270.936 40.3437 270.145 40.2159 269.217 40.2159H266.433V63H258.535ZM275.581 49.6477L282.853 63H274.274L267.172 49.6477H275.581ZM284.619 40.2727V33.9091H309.903V40.2727H301.153V63H293.369V40.2727H284.619Z" fill="#F6F6F6" fill-opacity="0.7"/>
<path d="M478 0H440.028C434.887 0 433.093 6.82674 437.57 9.35412L475.542 30.7899C478.875 32.6714 483 30.2633 483 26.4357V5C483 2.23858 480.761 0 478 0Z" fill="#0047FF"/>
<defs>
<linearGradient id="paint0_linear_817_12903" x1="-27.5" y1="185" x2="585.696" y2="-275.729" gradientUnits="userSpaceOnUse">
<stop stop-color="white"/>
<stop offset="0.526042" stop-color="#0047FF"/>
<stop offset="1" stop-color="#FBFBFB"/>
</linearGradient>
</defs>
</svg>
