<svg width="42" height="42" viewBox="0 0 42 42" fill="none" xmlns="http://www.w3.org/2000/svg">
<circle cx="21" cy="21" r="21" fill="white"/>
<path d="M19.5801 26.3168L17.1489 28.7467C16.8973 29.02 16.5931 29.2397 16.2545 29.3925C15.9158 29.5453 15.5498 29.628 15.1784 29.6359C14.807 29.6437 14.4378 29.5764 14.0931 29.438C13.7483 29.2996 13.4351 29.0929 13.1722 28.8305C12.9093 28.568 12.7022 28.2551 12.5632 27.9106C12.4242 27.5661 12.3563 27.1971 12.3636 26.8257C12.3708 26.4543 12.453 26.0882 12.6053 25.7493C12.7576 25.4105 12.9767 25.1059 13.2497 24.8539L18.1928 19.9122C18.7104 19.3905 19.4138 19.0953 20.1487 19.0913C20.8837 19.0873 21.5902 19.3748 22.1135 19.8907C22.1788 19.962 22.2578 20.0193 22.3458 20.0591C22.4338 20.099 22.529 20.1207 22.6256 20.1228C22.7222 20.1249 22.8182 20.1074 22.9079 20.0715C22.9975 20.0355 23.079 19.9817 23.1473 19.9134C23.2156 19.8451 23.2694 19.7636 23.3054 19.674C23.3414 19.5843 23.3588 19.4883 23.3567 19.3917C23.3546 19.2951 23.333 19.2 23.2931 19.112C23.2532 19.024 23.1959 18.945 23.1246 18.8797C22.3332 18.096 21.2631 17.6581 20.1492 17.6621C19.0353 17.6662 17.9685 18.1117 17.1827 18.9012L12.2386 23.8418C11.4494 24.6274 11.0041 25.6937 11 26.8071C10.996 27.9205 11.4337 28.9901 12.2171 29.7813C12.6044 30.1691 13.0646 30.4764 13.5711 30.6857C14.0776 30.895 14.6206 31.0021 15.1686 31.0009C15.7241 31.0014 16.2742 30.8921 16.7874 30.6795C17.3006 30.4669 17.7667 30.1551 18.159 29.7619L20.5902 27.3319C20.6614 27.2666 20.7186 27.1875 20.7584 27.0995C20.7982 27.0114 20.8198 26.9163 20.8218 26.8197C20.8238 26.7231 20.8062 26.6271 20.7701 26.5375C20.7341 26.4478 20.6802 26.3665 20.6118 26.2982C20.5434 26.23 20.4619 26.1763 20.3722 26.1404C20.2825 26.1045 20.1865 26.0871 20.0899 26.0893C19.9933 26.0915 19.8982 26.1133 19.8102 26.1533C19.7222 26.1932 19.6433 26.2506 19.5781 26.3219L19.5801 26.3168Z" fill="#191919" stroke="#191919"/>
<path d="M23.8532 12.2289L21.423 14.6589C21.3565 14.7253 21.3037 14.8042 21.2677 14.8911C21.2317 14.978 21.2131 15.071 21.213 15.1651C21.213 15.2591 21.2315 15.3522 21.2674 15.4391C21.3034 15.526 21.3561 15.6049 21.4225 15.6715C21.489 15.738 21.5679 15.7908 21.6547 15.8268C21.7416 15.8628 21.8347 15.8814 21.9287 15.8814C22.0228 15.8815 22.1159 15.863 22.2028 15.8271C22.2897 15.7911 22.3686 15.7384 22.4352 15.672L24.8663 13.242C25.1173 12.9662 25.4216 12.7442 25.7609 12.5894C26.1001 12.4346 26.4672 12.3502 26.84 12.3413C27.2128 12.3325 27.5835 12.3993 27.9298 12.5378C28.276 12.6763 28.5905 12.8835 28.8543 13.1471C29.1182 13.4106 29.3258 13.7249 29.4646 14.0709C29.6035 14.417 29.6707 14.7876 29.6622 15.1604C29.6538 15.5332 29.5698 15.9003 29.4153 16.2397C29.2608 16.5791 29.0391 16.8836 28.7636 17.1349L23.8767 22.0193C23.3597 22.5421 22.6562 22.8382 21.921 22.8424C21.1857 22.8466 20.4789 22.5587 19.9559 22.0418C19.8201 21.9171 19.6414 21.8497 19.4571 21.8535C19.2727 21.8574 19.097 21.9322 18.9665 22.0625C18.836 22.1927 18.7608 22.3683 18.7565 22.5526C18.7523 22.7369 18.8194 22.9157 18.9438 23.0518C19.3307 23.4401 19.7908 23.7478 20.2975 23.9571C20.8041 24.1665 21.3472 24.2733 21.8954 24.2714H21.9148C22.4674 24.2699 23.0143 24.1595 23.5243 23.9466C24.0342 23.7336 24.4972 23.4223 24.8868 23.0303L29.7737 18.1449C30.1623 17.7562 30.4707 17.2948 30.681 16.787C30.8914 16.2792 30.9996 15.735 30.9996 15.1854C30.9996 14.6357 30.8914 14.0915 30.681 13.5837C30.4707 13.0759 30.1623 12.6145 29.7737 12.2259C29.385 11.8372 28.9236 11.5289 28.4157 11.3186C27.9079 11.1083 27.3636 11 26.8139 11C26.2643 11 25.72 11.1083 25.2121 11.3186C24.7043 11.5289 24.2429 11.8372 23.8542 12.2259V12.2289H23.8532Z" fill="#191919" stroke="#191919"/>
</svg>
