<svg width="42" height="42" viewBox="0 0 42 42" fill="none" xmlns="http://www.w3.org/2000/svg">
<circle cx="21" cy="21" r="21" transform="rotate(-180 21 21)" fill="#DDDDDD" fill-opacity="0.8"/>
<path d="M29.3372 16.7551L22.5844 10.9244C22.0769 10.4862 21.3253 10.4851 20.8165 10.9218L14.021 16.7549C13.7211 17.0123 13.5486 17.3878 13.5486 17.7829V28.4524C13.5486 29.2007 14.1552 29.8073 14.9034 29.8073H17.5651C18.3134 29.8073 18.92 29.2007 18.92 28.4524V24.2138C18.92 23.4656 19.5266 22.859 20.2748 22.859H23.1284C23.8766 22.859 24.4832 23.4656 24.4832 24.2138V28.4524C24.4832 29.2007 25.0898 29.8073 25.838 29.8073H28.4518C29.2001 29.8073 29.8066 29.2007 29.8066 28.4524V17.7806C29.8066 17.3868 29.6353 17.0124 29.3372 16.7551Z" stroke="black" stroke-width="2.70968"/>
</svg>
