<svg width="166" height="72" viewBox="0 0 166 72" fill="none" xmlns="http://www.w3.org/2000/svg">
<path fill-rule="evenodd" clip-rule="evenodd" d="M95.8094 29.4496C96.0864 27.3561 96.2941 25.6696 96.4307 24.3902C96.5712 23.1109 96.6731 22.0873 96.7424 21.3197C96.8116 20.5521 96.8578 19.9822 96.8828 19.61C96.904 19.2378 96.9155 18.9121 96.9155 18.633C98.2083 20.2148 99.224 21.971 99.9627 23.9017C100.701 25.8325 101.463 27.6817 102.25 29.4496H95.8094ZM153.427 24.2507C153.058 23.39 152.598 22.634 152.042 21.9827C151.488 21.3313 150.888 20.8196 150.241 20.4474C149.595 20.0752 148.972 19.9822 148.372 20.1683C144.032 20.7731 139.969 21.657 136.183 22.8201C132.397 23.9832 128.657 25.4254 124.964 27.1467C124.225 27.5189 123.763 28.0656 123.58 28.7867C123.394 29.5078 123.405 30.287 123.613 31.1245C123.823 31.9619 124.179 32.7877 124.687 33.6018C125.194 34.416 125.772 35.1254 126.418 35.7302C127.064 36.335 127.757 36.777 128.496 37.0561C129.234 37.3353 129.904 37.3353 130.504 37.0561C131.427 36.4048 132.339 35.9163 133.239 35.5907C134.14 35.265 135.05 34.9626 135.975 34.6835C134.728 36.4048 133.136 37.8819 131.198 39.1148C129.257 40.3476 127.182 41.1734 124.964 41.5921C122.747 41.5921 121.12 41.0804 120.081 40.0569C119.042 39.0334 118.419 37.7075 118.213 36.0792C118.003 34.4509 118.119 32.6481 118.558 30.6709C118.996 28.6936 119.608 26.728 120.393 24.7741C121.178 22.8201 122.043 21.0173 122.99 19.3657C123.936 17.7142 124.8 16.4232 125.587 15.4927C126.51 14.3761 127.48 13.4806 128.496 12.806C129.511 12.1314 130.781 11.515 132.305 10.9567C132.951 10.631 133.609 10.4449 134.278 10.3984C134.948 10.3519 135.744 10.3286 136.668 10.3286C137.268 10.2821 137.847 10.538 138.399 11.0963C138.953 11.6545 139.542 12.2477 140.167 12.8758C140.788 13.5038 141.458 14.0156 142.175 14.411C142.889 14.8065 143.732 14.7949 144.701 14.3761C145.117 14.097 145.382 13.6667 145.497 13.0851C145.613 12.5036 145.613 11.8872 145.497 11.2358C145.382 10.5845 145.186 9.95645 144.909 9.35165C144.632 8.74685 144.332 8.30488 144.009 8.02575C142.623 5.69959 140.938 3.94335 138.953 2.75701C136.968 1.57067 134.855 0.907715 132.616 0.768146C130.377 0.628577 128.115 0.989131 125.829 1.84981C123.544 2.71048 121.408 4.0015 119.423 5.72285C117.807 7.21159 116.376 9.20045 115.129 11.6894C113.885 14.1784 112.854 16.8302 112.048 19.6449C111.24 22.4595 110.663 25.2509 110.316 28.019C110.114 29.6318 110.024 31.1089 110.016 32.4775C109.231 30.6379 108.504 28.7615 107.86 26.8327C107.121 24.6229 106.405 22.3897 105.711 20.1334C105.02 17.877 104.247 15.6788 103.391 13.5387C102.537 11.3987 101.544 9.37491 100.415 7.46747C99.2836 5.56002 97.9101 3.81541 96.2942 2.23362C95.6016 1.86144 94.6878 1.72187 93.5586 1.81492C92.4255 1.90796 91.5156 2.28015 90.8211 2.93147C89.8516 4.79239 89.2648 6.82778 89.0551 9.03762C88.8493 11.2475 88.7435 13.5038 88.7435 15.8067C88.7435 18.1096 88.6993 20.3893 88.6069 22.6456C88.5126 24.902 88.0971 27.0072 87.3584 28.9611C86.1138 28.6355 84.8883 28.2982 83.6879 27.9493C83.6148 27.9279 83.5436 27.8969 83.4705 27.8737C83.5186 27.6158 83.5744 27.3328 83.6206 27.0769C84.267 23.7273 84.5209 20.459 84.3824 17.2722C84.242 14.0854 83.988 10.8171 83.6206 7.46747C83.3436 6.25787 82.778 4.97848 81.9239 3.62932C81.0697 2.28015 80.0425 1.2799 78.842 0.628577C78.0552 0.489008 77.457 0.547162 77.0414 0.803039C76.624 1.05892 76.3143 1.41947 76.1065 1.8847C75.8968 2.34993 75.7833 2.87332 75.7602 3.45485C75.7352 4.03639 75.7256 4.55978 75.7256 5.02501C76.372 8.70033 76.5316 12.4803 76.2104 16.365C75.9487 19.5111 75.3832 22.5875 74.5463 25.596C74.3828 25.7065 74.2174 25.8034 74.0616 25.9604C73.0016 26.7048 72.5168 27.6469 72.6072 28.7867C72.6765 29.6066 72.9439 30.4111 73.3094 31.2078C73.1093 31.8727 72.9131 32.5395 72.6784 33.218C72.3552 33.8693 71.9955 34.6951 71.605 35.6953C71.2125 36.6956 70.5546 37.5214 69.6312 38.1727C69.6312 38.3123 69.5389 38.3937 69.3542 38.4169C69.1676 38.4402 68.9483 38.4169 68.6963 38.3472C68.4404 38.2774 68.2211 38.1611 68.0364 37.9982C67.8537 37.8354 67.7613 37.6842 67.7613 37.5446C67.4824 37.219 67.3208 36.777 67.2766 36.2187C67.2304 35.6604 67.2073 35.0789 67.2073 34.4741C67.4824 33.5436 67.4016 32.5201 66.9649 31.4036C66.5244 30.287 66.0069 29.2635 65.4048 28.3331C65.222 28.0074 64.8873 27.6469 64.4025 27.2514C63.9177 26.856 63.3964 26.5187 62.8443 26.2395C62.2902 25.9604 61.7362 25.8208 61.1822 25.8208C60.6281 25.8208 60.1876 26.0534 59.8644 26.5187C58.941 28.3331 58.0292 30.1475 57.1308 31.9619C56.2305 33.7763 55.3167 35.4278 54.3952 36.9166C54.072 36.2652 53.8854 35.5209 53.8412 34.6835C53.7931 33.8461 53.77 32.9621 53.77 32.0317C53.4468 29.2403 53.2872 26.5768 53.2872 24.0413C53.2872 21.5058 53.4468 18.8424 53.77 16.051C53.8624 15.3531 53.7489 14.5855 53.4257 13.7481C53.1025 12.9107 52.6639 12.1198 52.1098 11.3754C51.5558 10.631 50.9441 9.99135 50.2746 9.45633C49.6032 8.92132 48.9588 8.58402 48.3355 8.44445C47.7122 8.30488 47.1697 8.43282 46.708 8.82827C46.2463 9.22371 45.9693 9.97972 45.8769 11.0963C45.5538 14.8181 45.4152 18.5167 45.4614 22.192C45.4749 23.2446 45.5615 24.2972 45.6211 25.3517C44.4207 24.4523 43.1414 23.6362 41.6871 22.9945C39.6325 22.0873 37.4856 21.3546 35.2483 20.7963C33.0072 20.2381 30.9642 19.6565 29.1174 19.0517C28.1478 18.6795 27.3398 18.3306 26.6935 18.0049C26.0452 17.6793 25.4238 17.1908 24.8255 16.5395C25.1006 16.5395 25.3776 16.4464 25.6547 16.2603C25.7932 16.1673 25.9086 16.051 26.0009 15.9114C27.8939 14.6553 29.8811 13.6085 31.9587 12.7711C34.0344 11.9337 36.1813 11.515 38.3975 11.515C39.2285 11.4219 39.8056 11.0846 40.1288 10.5031C40.452 9.92156 40.6021 9.22371 40.579 8.40956C40.554 7.59541 40.3712 6.7231 40.0249 5.79264C39.6787 4.86218 39.2285 4.02476 38.6745 3.28039C38.1204 2.53602 37.4972 1.93122 36.8046 1.46599C36.1121 1.00076 35.3964 0.814669 34.6577 0.907715C32.1646 0.907715 29.7176 1.32642 27.3168 2.16384C24.914 3.00125 22.6075 4.07128 20.3913 5.37393C19.1909 6.16482 18.2444 7.08365 17.5519 8.13042C16.8593 9.17719 16.4188 10.2937 16.2361 11.4801C16.0514 12.6664 16.0975 13.9109 16.3746 15.2136C16.6535 16.5162 17.1825 17.7956 17.9674 19.0517C19.5372 21.5174 21.384 23.483 23.5078 24.9485C25.6316 26.414 27.917 27.7515 30.364 28.9611C31.5644 29.6124 32.7879 30.1126 34.0344 30.4615C35.281 30.8104 36.5045 31.1477 37.7049 31.4734C38.0743 31.4734 38.409 31.5781 38.7091 31.7874C39.0092 31.9968 39.3209 32.1014 39.644 32.1014C38.9977 32.4271 38.4898 32.7411 38.1204 33.0435C37.7492 33.3459 37.451 33.6832 37.2201 34.0554C36.2506 34.6602 35.281 35.2301 34.3115 35.7651C33.3419 36.3001 32.2088 36.7537 30.9199 37.1259C29.7176 37.7307 28.5172 38.1843 27.3168 38.4867C26.1144 38.7891 25.0544 38.9403 24.1311 38.9403H20.3913C20.2547 38.9403 20.022 38.9054 19.7007 38.8356C19.3756 38.7659 19.0524 38.6961 18.7292 38.6263C18.406 38.5565 18.1636 38.4867 18.002 38.4169C17.8404 38.3472 17.8289 38.3123 17.9674 38.3123C17.6442 38.0331 17.2287 37.6842 16.7208 37.2655C16.213 36.8468 15.6936 36.5211 15.1626 36.2885C14.6336 36.0559 14.1123 35.9745 13.6063 36.0443C13.0965 36.114 12.681 36.4746 12.3578 37.1259C11.898 37.7307 11.6422 38.3704 11.5979 39.045C11.5498 39.7196 11.6306 40.3942 11.8403 41.0688C12.0462 41.7433 12.3136 42.383 12.6348 42.9878C12.9599 43.5926 13.2831 44.1277 13.6063 44.5929C14.851 46.1281 16.3284 47.3028 18.0367 48.117C19.7449 48.9312 21.5686 49.4545 23.5078 49.6872C25.4469 49.9198 27.4322 49.9081 29.4636 49.6523C31.4951 49.3964 33.4342 48.9428 35.281 48.2915C36.8046 47.8262 38.5244 47.0935 40.4405 46.0933C42.3565 45.093 44.111 43.895 45.7038 42.4993C46.4637 41.8325 47.1389 41.125 47.741 40.3806C47.9719 41.2161 48.2258 42.0399 48.5086 42.8483C49.5705 45.8723 51.323 48.6171 53.77 51.0829C54.0932 51.2224 54.476 51.4182 54.9146 51.676C55.3533 51.9319 55.7784 52.1296 56.1959 52.2692C56.6114 52.4088 56.9923 52.4553 57.3386 52.4088C57.6848 52.3622 57.9272 52.1064 58.0657 51.6411C58.9872 50.1059 59.876 48.5822 60.732 47.0702C61.5862 45.5582 62.3364 44.0346 62.9828 42.4993L64.1601 43.6857C64.8988 44.7557 65.878 45.7443 67.1034 46.6515C68.3269 47.5587 69.5831 48.1868 70.8778 48.5357C72.1686 48.8846 73.4152 48.8614 74.6156 48.4659C75.816 48.0705 76.8087 47.1051 77.5955 45.5699C78.5189 44.3137 79.2922 42.9413 79.9136 41.4526C80.4464 40.1829 80.9062 38.8512 81.3217 37.4787C81.7969 37.5194 82.2682 37.5621 82.7549 37.5795C83.4244 37.6028 84.0919 37.6726 84.7633 37.7889C85.4308 37.9052 86.1138 38.1727 86.8044 38.5914C86.8967 39.5684 86.8159 40.8827 86.562 42.5342C86.31 44.1858 86.031 45.9886 85.7329 47.9425C85.4308 49.8965 85.1884 51.8854 85.0057 53.9091C84.8191 55.9329 84.8422 57.8054 85.0749 59.5268C85.3039 61.2462 85.8137 62.7369 86.5985 63.993C87.3815 65.2491 88.6069 66.0633 90.2671 66.4355C91.0058 66.7611 91.5849 66.8425 92.0004 66.6797C92.414 66.5169 92.716 66.2261 92.8988 65.8074C93.0835 65.3887 93.1893 64.9002 93.2104 64.3419C93.2335 63.7836 93.247 63.2952 93.247 62.8764C93.0142 60.876 92.9584 58.9104 93.0719 56.9796C93.1893 55.0489 93.372 53.1415 93.6259 51.2573C93.8799 49.3731 94.1473 47.5006 94.4224 45.6396C94.7013 43.7787 94.9071 41.8713 95.0476 39.9173C96.8482 39.9173 98.7873 40.0104 100.865 40.1964C102.943 40.3825 105.043 40.4756 107.165 40.4756C107.444 40.9408 107.765 41.4177 108.135 41.9062C108.506 42.3947 108.92 42.8483 109.383 43.267C109.843 43.6857 110.341 44.023 110.872 44.2789C111.401 44.5347 111.967 44.6627 112.569 44.6627C113.019 44.5231 113.34 44.2789 113.596 43.9803C114.635 45.4555 115.847 46.7562 117.244 47.8728C119.158 49.408 121.351 50.4781 123.823 51.0829C126.291 51.6876 128.911 51.6411 131.681 50.9433C133.667 50.3385 135.663 49.3615 137.672 48.0123C139.68 46.6632 141.354 45.093 142.693 43.3019C144.032 41.5107 144.897 39.6149 145.29 37.6144C145.682 35.6139 145.255 33.6832 144.009 31.8223C145.209 31.4966 146.536 31.1942 147.991 30.9151C149.445 30.636 150.795 30.3568 152.042 30.0777C152.873 29.8916 153.439 29.4845 153.739 28.8565C154.039 28.2284 154.154 27.5189 154.085 26.728C154.016 25.9371 153.796 25.1113 153.427 24.2507Z" fill="#DDDDDD"/>
<path fill-rule="evenodd" clip-rule="evenodd" d="M164.447 64.3359C162.854 62.4013 160.53 60.7556 157.477 59.4006C154.424 58.0475 150.839 56.9601 146.724 56.144C142.607 55.3259 138.052 54.725 133.058 54.3373C128.062 53.9496 122.817 53.7461 117.323 53.7248C111.831 53.7035 106.189 53.843 100.396 54.1435C99.2017 54.2055 98.0206 54.2869 96.8317 54.3567C96.7413 55.3124 96.6201 56.2564 96.5662 57.2237C96.4566 59.1544 96.5104 61.12 96.7317 63.1205C96.7317 63.5198 96.7201 63.9909 96.699 64.5162C102.593 64.3107 108.457 64.1847 114.288 64.144C120.278 64.0994 126.086 64.1634 131.713 64.3359C137.338 64.5084 142.724 64.7973 147.868 65.2063C153.014 65.6153 157.76 66.1639 162.106 66.852C162.737 66.9373 163.26 66.916 163.676 66.7881C164.089 66.6582 164.397 66.4643 164.597 66.2065C164.795 65.9487 164.886 65.6483 164.87 65.3032C164.853 64.9601 164.713 64.6364 164.447 64.3359Z" fill="#DDDDDD"/>
<path fill-rule="evenodd" clip-rule="evenodd" d="M81.9075 59.7208C81.7112 58.2127 81.6997 56.5689 81.8113 54.8301C79.9145 54.9658 78.0158 55.0976 76.1305 55.2546C70.4132 55.7276 64.8286 56.2859 59.3767 56.9314C53.9268 57.5769 48.8269 58.2534 44.0792 58.9629C39.3314 59.6724 35.0261 60.3721 31.1632 61.0603C27.3004 61.7465 24.0666 62.392 21.458 62.9949C19.1841 63.5105 16.943 64.0378 14.7365 64.5747C12.5299 65.1136 10.3734 65.7048 8.26695 66.3484C7.76485 66.4783 7.1204 66.6508 6.33552 66.866C5.55064 67.0812 4.78114 67.306 4.02704 67.5425C3.27486 67.779 2.61502 68.0484 2.04752 68.3489C1.47809 68.6494 1.17607 68.9731 1.14336 69.3162C1.01063 69.9191 1.2357 70.3378 1.82052 70.5743C2.40533 70.8108 3.1325 70.929 4.00203 70.929C4.87348 70.929 5.7661 70.8747 6.68564 70.7681C7.60518 70.6615 8.34967 70.5646 8.91717 70.4773C11.1929 70.2622 13.4668 70.0373 15.7407 69.8008C18.0145 69.5643 20.2884 69.3162 22.5603 69.0584C27.008 68.628 31.8404 68.188 37.0575 67.7364C42.2728 67.2847 47.7323 66.8544 53.4343 66.4453C59.1362 66.0363 65.0036 65.6622 71.0403 65.3172C75.2648 65.0768 79.5259 64.9081 83.7812 64.7298C83.6408 64.5534 83.4926 64.3848 83.3733 64.187C82.6173 62.9309 82.1287 61.4402 81.9075 59.7208Z" fill="#DDDDDD"/>
</svg>
