<svg width="135" height="32" viewBox="0 0 135 32" fill="none" xmlns="http://www.w3.org/2000/svg">
<rect x="3" y="3" width="132" height="29" rx="14.5" fill="black" fill-opacity="0.8"/>
<rect x="0.5" y="0.5" width="133" height="30" rx="15" fill="white" stroke="black"/>
<path d="M16.929 22.488C13.313 22.488 10.145 20.248 10.145 15.688C10.145 10.68 13.825 7.352 18.209 7.352C22.065 7.352 24.529 9.96 24.529 13.72C24.529 17.016 22.337 18.664 20.529 18.664C19.489 18.664 18.657 18.184 18.481 17.288H18.449C17.921 18.008 17.009 18.52 16.257 18.52C14.881 18.52 13.905 17.496 13.905 15.816C13.905 13.672 15.441 11.416 17.521 11.416C18.145 11.416 18.625 11.688 18.929 12.328H18.961L19.217 11.56H20.673L19.889 15.48C19.585 16.648 19.889 17.192 20.753 17.192C21.873 17.192 23.025 15.896 23.025 13.784C23.025 11.08 21.505 8.792 18.017 8.792C14.865 8.792 11.761 11.496 11.761 15.64C11.761 19.224 14.209 21.032 17.121 21.032C18.097 21.032 19.169 20.696 19.937 20.296L20.465 21.592C19.377 22.2 18.225 22.488 16.929 22.488ZM16.737 17.016C17.169 17.016 17.553 16.776 18.081 16.12L18.545 13.528C18.305 13.128 18.001 12.952 17.601 12.952C16.401 12.952 15.681 14.504 15.681 15.688C15.681 16.6 16.097 17.016 16.737 17.016ZM29.7439 9.36364L27.8121 21H25.3916L27.3235 9.36364H29.7439ZM32.0409 21.1648C31.4879 21.1648 31.0087 21.0682 30.6034 20.875C30.2019 20.678 29.9065 20.3864 29.7171 20C29.5277 19.6136 29.4803 19.1345 29.575 18.5625C29.6583 18.0777 29.8155 17.6723 30.0466 17.3466C30.2815 17.017 30.5674 16.7519 30.9046 16.5511C31.2417 16.3504 31.6148 16.197 32.0239 16.0909C32.4368 15.9848 32.8629 15.9129 33.3023 15.875C33.8099 15.822 34.2227 15.7708 34.5409 15.7216C34.8629 15.6723 35.1034 15.6023 35.2625 15.5114C35.4216 15.4167 35.5182 15.2765 35.5523 15.0909V15.0568C35.6091 14.7008 35.5428 14.4242 35.3534 14.2273C35.1678 14.0265 34.8705 13.9261 34.4614 13.9261C34.0296 13.9261 33.6621 14.0208 33.3591 14.2102C33.0599 14.3996 32.8458 14.6402 32.7171 14.9318L30.5125 14.75C30.7095 14.2197 31.0068 13.7614 31.4046 13.375C31.8061 12.9848 32.289 12.6856 32.8534 12.4773C33.4178 12.2652 34.0504 12.1591 34.7511 12.1591C35.236 12.1591 35.6886 12.2159 36.1091 12.3295C36.5333 12.4432 36.8989 12.6193 37.2057 12.858C37.5163 13.0966 37.7398 13.4034 37.8761 13.7784C38.0163 14.1496 38.0447 14.5947 37.9614 15.1136L36.9784 21H34.683L34.8875 19.7898H34.8193C34.6337 20.0625 34.4065 20.303 34.1375 20.5114C33.8686 20.7159 33.5599 20.8769 33.2114 20.9943C32.8629 21.108 32.4727 21.1648 32.0409 21.1648ZM33.0125 19.4943C33.3648 19.4943 33.6886 19.4242 33.9841 19.2841C34.2833 19.1402 34.5296 18.947 34.7227 18.7045C34.9197 18.4621 35.0447 18.1875 35.0977 17.8807L35.2455 16.9545C35.1697 17.0038 35.0599 17.0473 34.9159 17.0852C34.7758 17.1231 34.6224 17.1591 34.4557 17.1932C34.2928 17.2235 34.128 17.2519 33.9614 17.2784C33.7947 17.3011 33.6451 17.3239 33.5125 17.3466C33.2208 17.3883 32.9595 17.4545 32.7284 17.5455C32.4974 17.6364 32.3099 17.7595 32.1659 17.9148C32.022 18.0663 31.933 18.2557 31.8989 18.483C31.8458 18.8125 31.9235 19.0644 32.1318 19.2386C32.344 19.4091 32.6375 19.4943 33.0125 19.4943ZM41.8848 21.142C41.2181 21.142 40.6443 20.9716 40.1632 20.6307C39.6859 20.286 39.345 19.7803 39.1405 19.1136C38.9397 18.4432 38.9208 17.6212 39.0837 16.6477C39.2503 15.6477 39.5496 14.8163 39.9814 14.1534C40.4132 13.4867 40.9246 12.9886 41.5155 12.6591C42.1064 12.3258 42.7219 12.1591 43.3621 12.1591C43.8469 12.1591 44.239 12.2424 44.5382 12.4091C44.8412 12.572 45.0742 12.7765 45.2371 13.0227C45.4 13.2652 45.5136 13.5038 45.578 13.7386H45.6519L46.3848 9.36364H48.7996L46.8678 21H44.4814L44.7144 19.6023H44.6121C44.4606 19.8447 44.2598 20.0852 44.0098 20.3239C43.7636 20.5587 43.4644 20.7538 43.1121 20.9091C42.7636 21.0644 42.3545 21.142 41.8848 21.142ZM42.953 19.2159C43.3394 19.2159 43.6878 19.1098 43.9984 18.8977C44.309 18.6818 44.5704 18.3807 44.7825 17.9943C44.9947 17.608 45.1424 17.1553 45.2257 16.6364C45.3128 16.1174 45.3147 15.6667 45.2314 15.2841C45.1481 14.9015 44.9852 14.6061 44.7428 14.3977C44.5041 14.1894 44.1878 14.0852 43.7939 14.0852C43.3962 14.0852 43.0439 14.1932 42.7371 14.4091C42.434 14.625 42.1822 14.9242 41.9814 15.3068C41.7844 15.6894 41.6443 16.1326 41.5609 16.6364C41.4776 17.1439 41.4719 17.5928 41.5439 17.983C41.6159 18.3693 41.7693 18.6723 42.0041 18.892C42.239 19.108 42.5553 19.2159 42.953 19.2159ZM49.6364 24.2727C49.3258 24.2727 49.0417 24.2481 48.7841 24.1989C48.5265 24.1534 48.3144 24.0947 48.1477 24.0227L49 22.2159C49.2689 22.303 49.5133 22.3485 49.733 22.3523C49.9564 22.3561 50.161 22.2992 50.3466 22.1818C50.5322 22.0644 50.7027 21.8712 50.858 21.6023L51.0739 21.233L49.4375 12.2727H51.892L52.6307 18.6932H52.7216L55.6136 12.2727H58.267L53.2727 21.9432C53.0265 22.4167 52.7348 22.8277 52.3977 23.1761C52.0644 23.5246 51.6686 23.7936 51.2102 23.983C50.7557 24.1761 50.2311 24.2727 49.6364 24.2727ZM58.8354 24.2727C58.5248 24.2727 58.2407 24.2481 57.9831 24.1989C57.7255 24.1534 57.5134 24.0947 57.3467 24.0227L58.199 22.2159C58.4679 22.303 58.7123 22.3485 58.932 22.3523C59.1554 22.3561 59.36 22.2992 59.5456 22.1818C59.7312 22.0644 59.9016 21.8712 60.057 21.6023L60.2729 21.233L58.6365 12.2727H61.091L61.8297 18.6932H61.9206L64.8126 12.2727H67.466L62.4717 21.9432C62.2255 22.4167 61.9338 22.8277 61.5967 23.1761C61.2634 23.5246 60.8676 23.7936 60.4092 23.983C59.9547 24.1761 59.4301 24.2727 58.8354 24.2727ZM73.29 17.2841L74.1253 12.2727H76.5457L75.0912 21H72.7673L73.0287 19.4148H72.9378C72.6688 19.9261 72.2768 20.3371 71.7616 20.6477C71.2465 20.9583 70.6613 21.1136 70.006 21.1136C69.4226 21.1136 68.9302 20.9811 68.5287 20.7159C68.131 20.4508 67.8488 20.0739 67.6821 19.5852C67.5154 19.0966 67.487 18.5114 67.5969 17.8295L68.5287 12.2727H70.9491L70.0969 17.3977C70.0173 17.9129 70.0893 18.3201 70.3128 18.6193C70.5363 18.9186 70.8772 19.0682 71.3355 19.0682C71.6272 19.0682 71.9094 19.0019 72.1821 18.8693C72.4586 18.733 72.6972 18.5322 72.898 18.267C73.0988 18.0019 73.2294 17.6742 73.29 17.2841ZM79.3172 21.1648C78.7641 21.1648 78.285 21.0682 77.8797 20.875C77.4782 20.678 77.1827 20.3864 76.9933 20C76.8039 19.6136 76.7566 19.1345 76.8513 18.5625C76.9346 18.0777 77.0918 17.6723 77.3229 17.3466C77.5577 17.017 77.8437 16.7519 78.1808 16.5511C78.5179 16.3504 78.891 16.197 79.3001 16.0909C79.713 15.9848 80.1391 15.9129 80.5785 15.875C81.0861 15.822 81.499 15.7708 81.8172 15.7216C82.1391 15.6723 82.3797 15.6023 82.5388 15.5114C82.6979 15.4167 82.7944 15.2765 82.8285 15.0909V15.0568C82.8854 14.7008 82.8191 14.4242 82.6297 14.2273C82.4441 14.0265 82.1467 13.9261 81.7376 13.9261C81.3058 13.9261 80.9384 14.0208 80.6354 14.2102C80.3361 14.3996 80.1221 14.6402 79.9933 14.9318L77.7888 14.75C77.9857 14.2197 78.2831 13.7614 78.6808 13.375C79.0823 12.9848 79.5653 12.6856 80.1297 12.4773C80.6941 12.2652 81.3266 12.1591 82.0274 12.1591C82.5122 12.1591 82.9649 12.2159 83.3854 12.3295C83.8096 12.4432 84.1751 12.6193 84.4819 12.858C84.7925 13.0966 85.016 13.4034 85.1524 13.7784C85.2925 14.1496 85.321 14.5947 85.2376 15.1136L84.2547 21H81.9592L82.1638 19.7898H82.0956C81.91 20.0625 81.6827 20.303 81.4138 20.5114C81.1448 20.7159 80.8361 20.8769 80.4876 20.9943C80.1391 21.108 79.749 21.1648 79.3172 21.1648ZM80.2888 19.4943C80.641 19.4943 80.9649 19.4242 81.2604 19.2841C81.5596 19.1402 81.8058 18.947 81.999 18.7045C82.196 18.4621 82.321 18.1875 82.374 17.8807L82.5217 16.9545C82.446 17.0038 82.3361 17.0473 82.1922 17.0852C82.052 17.1231 81.8986 17.1591 81.7319 17.1932C81.5691 17.2235 81.4043 17.2519 81.2376 17.2784C81.071 17.3011 80.9213 17.3239 80.7888 17.3466C80.4971 17.3883 80.2357 17.4545 80.0047 17.5455C79.7736 17.6364 79.5861 17.7595 79.4422 17.9148C79.2982 18.0663 79.2092 18.2557 79.1751 18.483C79.1221 18.8125 79.1997 19.0644 79.4081 19.2386C79.6202 19.4091 79.9138 19.4943 80.2888 19.4943ZM89.2292 15.9545L88.3883 21H85.9736L87.4281 12.2727H89.7292L89.4792 13.8125H89.5758C89.8524 13.3011 90.2425 12.8977 90.7463 12.6023C91.2539 12.3068 91.8315 12.1591 92.4792 12.1591C93.0853 12.1591 93.591 12.2917 93.9963 12.5568C94.4054 12.822 94.6933 13.1989 94.8599 13.6875C95.0304 14.1761 95.0588 14.7614 94.9452 15.4432L94.0133 21H91.5929L92.4508 15.875C92.538 15.3409 92.4698 14.9242 92.2463 14.625C92.0266 14.322 91.6724 14.1705 91.1838 14.1705C90.858 14.1705 90.5588 14.2405 90.2861 14.3807C90.0133 14.5208 89.7842 14.7254 89.5986 14.9943C89.4167 15.2595 89.2936 15.5795 89.2292 15.9545Z" fill="#191919"/>
<path d="M133 15.5C133 23.5081 126.508 30 118.5 30L101 30L101 0.999997L118.5 0.999999C126.508 0.999999 133 7.49187 133 15.5Z" fill="#FF018A"/>
<path d="M112.542 14.179C112.499 14.0033 112.431 13.8492 112.338 13.7166C112.245 13.5807 112.129 13.4664 111.99 13.3736C111.854 13.2775 111.695 13.2062 111.513 13.1598C111.334 13.1101 111.137 13.0852 110.921 13.0852C110.457 13.0852 110.061 13.1963 109.733 13.4183C109.408 13.6404 109.16 13.9602 108.987 14.3778C108.818 14.7955 108.734 15.2992 108.734 15.8892C108.734 16.4858 108.815 16.9962 108.977 17.4205C109.14 17.8447 109.382 18.1695 109.703 18.3949C110.025 18.6203 110.424 18.733 110.901 18.733C111.322 18.733 111.672 18.6716 111.95 18.549C112.232 18.4264 112.443 18.2524 112.582 18.027C112.721 17.8016 112.791 17.5365 112.791 17.2315L113.268 17.2812H110.941V15.3125H115.455V16.7244C115.455 17.6525 115.258 18.4463 114.864 19.1058C114.473 19.7621 113.932 20.2659 113.243 20.6172C112.557 20.9652 111.77 21.1392 110.881 21.1392C109.89 21.1392 109.02 20.9287 108.271 20.5078C107.522 20.0869 106.937 19.487 106.516 18.7081C106.099 17.9292 105.89 17.0028 105.89 15.929C105.89 15.0871 106.018 14.3414 106.273 13.6918C106.531 13.0421 106.889 12.4936 107.347 12.0462C107.804 11.5954 108.333 11.2557 108.933 11.027C109.532 10.795 110.175 10.679 110.862 10.679C111.465 10.679 112.025 10.7652 112.542 10.9375C113.062 11.1065 113.521 11.3485 113.919 11.6634C114.32 11.9749 114.643 12.3445 114.889 12.772C115.134 13.1996 115.283 13.6686 115.336 14.179H112.542ZM126.104 15.9091C126.104 17.0426 125.883 17.9988 125.443 18.7777C125.002 19.5533 124.407 20.1416 123.658 20.5426C122.909 20.9403 122.074 21.1392 121.152 21.1392C120.224 21.1392 119.386 20.9387 118.636 20.5376C117.891 20.1333 117.297 19.5433 116.857 18.7678C116.419 17.9889 116.2 17.036 116.2 15.9091C116.2 14.7756 116.419 13.821 116.857 13.0455C117.297 12.2666 117.891 11.6783 118.636 11.2805C119.386 10.8795 120.224 10.679 121.152 10.679C122.074 10.679 122.909 10.8795 123.658 11.2805C124.407 11.6783 125.002 12.2666 125.443 13.0455C125.883 13.821 126.104 14.7756 126.104 15.9091ZM123.26 15.9091C123.26 15.2992 123.179 14.7855 123.016 14.3679C122.857 13.947 122.62 13.6288 122.306 13.4134C121.994 13.1946 121.61 13.0852 121.152 13.0852C120.695 13.0852 120.309 13.1946 119.994 13.4134C119.682 13.6288 119.445 13.947 119.283 14.3679C119.124 14.7855 119.044 15.2992 119.044 15.9091C119.044 16.5189 119.124 17.0343 119.283 17.4553C119.445 17.8729 119.682 18.1911 119.994 18.4098C120.309 18.6252 120.695 18.733 121.152 18.733C121.61 18.733 121.994 18.6252 122.306 18.4098C122.62 18.1911 122.857 17.8729 123.016 17.4553C123.179 17.0343 123.26 16.5189 123.26 15.9091Z" fill="#191919"/>
</svg>
