<svg width="137" height="32" viewBox="0 0 137 32" fill="none" xmlns="http://www.w3.org/2000/svg">
<rect x="3" y="3" width="134" height="29" rx="14.5" fill="black" fill-opacity="0.8"/>
<rect x="0.5" y="0.5" width="135" height="30" rx="15" fill="white" stroke="black"/>
<path d="M135 15.5C135 23.5081 128.508 30 120.5 30L103 30L103 0.999997L120.5 0.999999C128.508 0.999999 135 7.49187 135 15.5Z" fill="#FF018A"/>
<path d="M115.542 14.179C115.499 14.0033 115.431 13.8492 115.338 13.7166C115.245 13.5807 115.129 13.4664 114.99 13.3736C114.854 13.2775 114.695 13.2062 114.513 13.1598C114.334 13.1101 114.137 13.0852 113.921 13.0852C113.457 13.0852 113.061 13.1963 112.733 13.4183C112.408 13.6404 112.16 13.9602 111.987 14.3778C111.818 14.7955 111.734 15.2992 111.734 15.8892C111.734 16.4858 111.815 16.9962 111.977 17.4205C112.14 17.8447 112.382 18.1695 112.703 18.3949C113.025 18.6203 113.424 18.733 113.901 18.733C114.322 18.733 114.672 18.6716 114.95 18.549C115.232 18.4264 115.443 18.2524 115.582 18.027C115.721 17.8016 115.791 17.5365 115.791 17.2315L116.268 17.2812H113.941V15.3125H118.455V16.7244C118.455 17.6525 118.258 18.4463 117.864 19.1058C117.473 19.7621 116.932 20.2659 116.243 20.6172C115.557 20.9652 114.77 21.1392 113.881 21.1392C112.89 21.1392 112.02 20.9287 111.271 20.5078C110.522 20.0869 109.937 19.487 109.516 18.7081C109.099 17.9292 108.89 17.0028 108.89 15.929C108.89 15.0871 109.018 14.3414 109.273 13.6918C109.531 13.0421 109.889 12.4936 110.347 12.0462C110.804 11.5954 111.333 11.2557 111.933 11.027C112.532 10.795 113.175 10.679 113.862 10.679C114.465 10.679 115.025 10.7652 115.542 10.9375C116.062 11.1065 116.521 11.3485 116.919 11.6634C117.32 11.9749 117.643 12.3445 117.889 12.772C118.134 13.1996 118.283 13.6686 118.336 14.179H115.542ZM129.104 15.9091C129.104 17.0426 128.883 17.9988 128.443 18.7777C128.002 19.5533 127.407 20.1416 126.658 20.5426C125.909 20.9403 125.074 21.1392 124.152 21.1392C123.224 21.1392 122.386 20.9387 121.636 20.5376C120.891 20.1333 120.297 19.5433 119.857 18.7678C119.419 17.9889 119.2 17.036 119.2 15.9091C119.2 14.7756 119.419 13.821 119.857 13.0455C120.297 12.2666 120.891 11.6783 121.636 11.2805C122.386 10.8795 123.224 10.679 124.152 10.679C125.074 10.679 125.909 10.8795 126.658 11.2805C127.407 11.6783 128.002 12.2666 128.443 13.0455C128.883 13.821 129.104 14.7756 129.104 15.9091ZM126.26 15.9091C126.26 15.2992 126.179 14.7855 126.016 14.3679C125.857 13.947 125.62 13.6288 125.306 13.4134C124.994 13.1946 124.61 13.0852 124.152 13.0852C123.695 13.0852 123.309 13.1946 122.994 13.4134C122.682 13.6288 122.445 13.947 122.283 14.3679C122.124 14.7855 122.044 15.2992 122.044 15.9091C122.044 16.5189 122.124 17.0343 122.283 17.4553C122.445 17.8729 122.682 18.1911 122.994 18.4098C123.309 18.6252 123.695 18.733 124.152 18.733C124.61 18.733 124.994 18.6252 125.306 18.4098C125.62 18.1911 125.857 17.8729 126.016 17.4553C126.179 17.0343 126.26 16.5189 126.26 15.9091Z" fill="#191919"/>
<path d="M15.679 22.488C12.063 22.488 8.895 20.248 8.895 15.688C8.895 10.68 12.575 7.352 16.959 7.352C20.815 7.352 23.279 9.96 23.279 13.72C23.279 17.016 21.087 18.664 19.279 18.664C18.239 18.664 17.407 18.184 17.231 17.288H17.199C16.671 18.008 15.759 18.52 15.007 18.52C13.631 18.52 12.655 17.496 12.655 15.816C12.655 13.672 14.191 11.416 16.271 11.416C16.895 11.416 17.375 11.688 17.679 12.328H17.711L17.967 11.56H19.423L18.639 15.48C18.335 16.648 18.639 17.192 19.503 17.192C20.623 17.192 21.775 15.896 21.775 13.784C21.775 11.08 20.255 8.792 16.767 8.792C13.615 8.792 10.511 11.496 10.511 15.64C10.511 19.224 12.959 21.032 15.871 21.032C16.847 21.032 17.919 20.696 18.687 20.296L19.215 21.592C18.127 22.2 16.975 22.488 15.679 22.488ZM15.487 17.016C15.919 17.016 16.303 16.776 16.831 16.12L17.295 13.528C17.055 13.128 16.751 12.952 16.351 12.952C15.151 12.952 14.431 14.504 14.431 15.688C14.431 16.6 14.847 17.016 15.487 17.016ZM33.7325 12.2727L29.2269 21H26.4996L24.903 12.2727H27.3689L28.1416 18.517H28.2325L31.0791 12.2727H33.7325ZM35.5722 21.1648C35.0191 21.1648 34.54 21.0682 34.1347 20.875C33.7332 20.678 33.4377 20.3864 33.2483 20C33.0589 19.6136 33.0116 19.1345 33.1063 18.5625C33.1896 18.0777 33.3468 17.6723 33.5779 17.3466C33.8127 17.017 34.0987 16.7519 34.4358 16.5511C34.7729 16.3504 35.146 16.197 35.5551 16.0909C35.968 15.9848 36.3941 15.9129 36.8335 15.875C37.3411 15.822 37.754 15.7708 38.0722 15.7216C38.3941 15.6723 38.6347 15.6023 38.7938 15.5114C38.9529 15.4167 39.0494 15.2765 39.0835 15.0909V15.0568C39.1404 14.7008 39.0741 14.4242 38.8847 14.2273C38.6991 14.0265 38.4017 13.9261 37.9926 13.9261C37.5608 13.9261 37.1934 14.0208 36.8904 14.2102C36.5911 14.3996 36.3771 14.6402 36.2483 14.9318L34.0438 14.75C34.2407 14.2197 34.5381 13.7614 34.9358 13.375C35.3373 12.9848 35.8203 12.6856 36.3847 12.4773C36.9491 12.2652 37.5816 12.1591 38.2824 12.1591C38.7672 12.1591 39.2199 12.2159 39.6404 12.3295C40.0646 12.4432 40.4301 12.6193 40.7369 12.858C41.0475 13.0966 41.271 13.4034 41.4074 13.7784C41.5475 14.1496 41.576 14.5947 41.4926 15.1136L40.5097 21H38.2142L38.4188 19.7898H38.3506C38.165 20.0625 37.9377 20.303 37.6688 20.5114C37.3998 20.7159 37.0911 20.8769 36.7426 20.9943C36.3941 21.108 36.004 21.1648 35.5722 21.1648ZM36.5438 19.4943C36.896 19.4943 37.2199 19.4242 37.5154 19.2841C37.8146 19.1402 38.0608 18.947 38.254 18.7045C38.451 18.4621 38.576 18.1875 38.629 17.8807L38.7767 16.9545C38.701 17.0038 38.5911 17.0473 38.4472 17.0852C38.307 17.1231 38.1536 17.1591 37.9869 17.1932C37.8241 17.2235 37.6593 17.2519 37.4926 17.2784C37.326 17.3011 37.1763 17.3239 37.0438 17.3466C36.7521 17.3883 36.4907 17.4545 36.2597 17.5455C36.0286 17.6364 35.8411 17.7595 35.6972 17.9148C35.5532 18.0663 35.4642 18.2557 35.4301 18.483C35.3771 18.8125 35.4547 19.0644 35.6631 19.2386C35.8752 19.4091 36.1688 19.4943 36.5438 19.4943ZM51.4899 12.2727L46.9842 21H44.257L42.6604 12.2727H45.1263L45.899 18.517H45.9899L48.8365 12.2727H51.4899ZM53.3295 21.1648C52.7765 21.1648 52.2973 21.0682 51.892 20.875C51.4905 20.678 51.1951 20.3864 51.0057 20C50.8163 19.6136 50.7689 19.1345 50.8636 18.5625C50.947 18.0777 51.1042 17.6723 51.3352 17.3466C51.5701 17.017 51.8561 16.7519 52.1932 16.5511C52.5303 16.3504 52.9034 16.197 53.3125 16.0909C53.7254 15.9848 54.1515 15.9129 54.5909 15.875C55.0985 15.822 55.5114 15.7708 55.8295 15.7216C56.1515 15.6723 56.392 15.6023 56.5511 15.5114C56.7102 15.4167 56.8068 15.2765 56.8409 15.0909V15.0568C56.8977 14.7008 56.8314 14.4242 56.642 14.2273C56.4564 14.0265 56.1591 13.9261 55.75 13.9261C55.3182 13.9261 54.9508 14.0208 54.6477 14.2102C54.3485 14.3996 54.1345 14.6402 54.0057 14.9318L51.8011 14.75C51.9981 14.2197 52.2955 13.7614 52.6932 13.375C53.0947 12.9848 53.5777 12.6856 54.142 12.4773C54.7064 12.2652 55.339 12.1591 56.0398 12.1591C56.5246 12.1591 56.9773 12.2159 57.3977 12.3295C57.822 12.4432 58.1875 12.6193 58.4943 12.858C58.8049 13.0966 59.0284 13.4034 59.1648 13.7784C59.3049 14.1496 59.3333 14.5947 59.25 15.1136L58.267 21H55.9716L56.1761 19.7898H56.108C55.9223 20.0625 55.6951 20.303 55.4261 20.5114C55.1572 20.7159 54.8485 20.8769 54.5 20.9943C54.1515 21.108 53.7614 21.1648 53.3295 21.1648ZM54.3011 19.4943C54.6534 19.4943 54.9773 19.4242 55.2727 19.2841C55.572 19.1402 55.8182 18.947 56.0114 18.7045C56.2083 18.4621 56.3333 18.1875 56.3864 17.8807L56.5341 16.9545C56.4583 17.0038 56.3485 17.0473 56.2045 17.0852C56.0644 17.1231 55.911 17.1591 55.7443 17.1932C55.5814 17.2235 55.4167 17.2519 55.25 17.2784C55.0833 17.3011 54.9337 17.3239 54.8011 17.3466C54.5095 17.3883 54.2481 17.4545 54.017 17.5455C53.786 17.6364 53.5985 17.7595 53.4545 17.9148C53.3106 18.0663 53.2216 18.2557 53.1875 18.483C53.1345 18.8125 53.2121 19.0644 53.4205 19.2386C53.6326 19.4091 53.9261 19.4943 54.3011 19.4943ZM60.0143 21L61.9462 9.36364H64.3666L63.6507 13.7386H63.7189C63.8628 13.5038 64.056 13.2652 64.2984 13.0227C64.5446 12.7765 64.8458 12.572 65.2018 12.4091C65.5579 12.2424 65.9802 12.1591 66.4689 12.1591C67.1052 12.1591 67.664 12.3258 68.145 12.6591C68.6261 12.9886 68.9727 13.4867 69.1848 14.1534C69.3969 14.8163 69.4196 15.6477 69.253 16.6477C69.0939 17.6212 68.8003 18.4432 68.3723 19.1136C67.9481 19.7803 67.4386 20.286 66.8439 20.6307C66.253 20.9716 65.6261 21.142 64.9632 21.142C64.4935 21.142 64.1071 21.0644 63.8041 20.9091C63.5049 20.7538 63.2719 20.5587 63.1052 20.3239C62.9386 20.0852 62.8193 19.8447 62.7473 19.6023H62.628L62.4007 21H60.0143ZM63.1109 16.6364C63.0276 17.1553 63.0257 17.608 63.1052 17.9943C63.1886 18.3807 63.3477 18.6818 63.5825 18.8977C63.8212 19.1098 64.1337 19.2159 64.52 19.2159C64.9177 19.2159 65.27 19.108 65.5768 18.892C65.8874 18.6723 66.145 18.3693 66.3496 17.983C66.5541 17.5928 66.6981 17.1439 66.7814 16.6364C66.8609 16.1326 66.8628 15.6894 66.7871 15.3068C66.7113 14.9242 66.556 14.625 66.3212 14.4091C66.0863 14.1932 65.7681 14.0852 65.3666 14.0852C64.9765 14.0852 64.6261 14.1894 64.3155 14.3977C64.0087 14.6061 63.7511 14.9015 63.5427 15.2841C63.3382 15.6667 63.1943 16.1174 63.1109 16.6364ZM72.4307 21.1648C71.8776 21.1648 71.3985 21.0682 70.9932 20.875C70.5917 20.678 70.2962 20.3864 70.1068 20C69.9174 19.6136 69.8701 19.1345 69.9648 18.5625C70.0481 18.0777 70.2053 17.6723 70.4364 17.3466C70.6712 17.017 70.9572 16.7519 71.2943 16.5511C71.6314 16.3504 72.0045 16.197 72.4136 16.0909C72.8265 15.9848 73.2526 15.9129 73.692 15.875C74.1996 15.822 74.6125 15.7708 74.9307 15.7216C75.2526 15.6723 75.4932 15.6023 75.6523 15.5114C75.8114 15.4167 75.9079 15.2765 75.942 15.0909V15.0568C75.9989 14.7008 75.9326 14.4242 75.7432 14.2273C75.5576 14.0265 75.2602 13.9261 74.8511 13.9261C74.4193 13.9261 74.0519 14.0208 73.7489 14.2102C73.4496 14.3996 73.2356 14.6402 73.1068 14.9318L70.9023 14.75C71.0992 14.2197 71.3966 13.7614 71.7943 13.375C72.1958 12.9848 72.6788 12.6856 73.2432 12.4773C73.8076 12.2652 74.4401 12.1591 75.1409 12.1591C75.6257 12.1591 76.0784 12.2159 76.4989 12.3295C76.9231 12.4432 77.2886 12.6193 77.5954 12.858C77.906 13.0966 78.1295 13.4034 78.2659 13.7784C78.406 14.1496 78.4345 14.5947 78.3511 15.1136L77.3682 21H75.0727L75.2773 19.7898H75.2091C75.0235 20.0625 74.7962 20.303 74.5273 20.5114C74.2583 20.7159 73.9496 20.8769 73.6011 20.9943C73.2526 21.108 72.8625 21.1648 72.4307 21.1648ZM73.4023 19.4943C73.7545 19.4943 74.0784 19.4242 74.3739 19.2841C74.6731 19.1402 74.9193 18.947 75.1125 18.7045C75.3095 18.4621 75.4345 18.1875 75.4875 17.8807L75.6352 16.9545C75.5595 17.0038 75.4496 17.0473 75.3057 17.0852C75.1655 17.1231 75.0121 17.1591 74.8454 17.1932C74.6826 17.2235 74.5178 17.2519 74.3511 17.2784C74.1845 17.3011 74.0348 17.3239 73.9023 17.3466C73.6106 17.3883 73.3492 17.4545 73.1182 17.5455C72.8871 17.6364 72.6996 17.7595 72.5557 17.9148C72.4117 18.0663 72.3227 18.2557 72.2886 18.483C72.2356 18.8125 72.3132 19.0644 72.5216 19.2386C72.7337 19.4091 73.0273 19.4943 73.4023 19.4943ZM79.1155 21L81.0473 9.36364H83.4677L82.7518 13.7386H82.82C82.964 13.5038 83.1571 13.2652 83.3996 13.0227C83.6458 12.7765 83.9469 12.572 84.303 12.4091C84.659 12.2424 85.0814 12.1591 85.57 12.1591C86.2064 12.1591 86.7651 12.3258 87.2461 12.6591C87.7272 12.9886 88.0738 13.4867 88.2859 14.1534C88.498 14.8163 88.5208 15.6477 88.3541 16.6477C88.195 17.6212 87.9015 18.4432 87.4734 19.1136C87.0492 19.7803 86.5397 20.286 85.945 20.6307C85.3541 20.9716 84.7272 21.142 84.0643 21.142C83.5946 21.142 83.2083 21.0644 82.9052 20.9091C82.606 20.7538 82.373 20.5587 82.2064 20.3239C82.0397 20.0852 81.9204 19.8447 81.8484 19.6023H81.7291L81.5018 21H79.1155ZM82.2121 16.6364C82.1287 17.1553 82.1268 17.608 82.2064 17.9943C82.2897 18.3807 82.4488 18.6818 82.6836 18.8977C82.9223 19.1098 83.2348 19.2159 83.6211 19.2159C84.0189 19.2159 84.3711 19.108 84.678 18.892C84.9886 18.6723 85.2461 18.3693 85.4507 17.983C85.6552 17.5928 85.7992 17.1439 85.8825 16.6364C85.9621 16.1326 85.964 15.6894 85.8882 15.3068C85.8124 14.9242 85.6571 14.625 85.4223 14.4091C85.1874 14.1932 84.8693 14.0852 84.4677 14.0852C84.0776 14.0852 83.7272 14.1894 83.4166 14.3977C83.1098 14.6061 82.8522 14.9015 82.6439 15.2841C82.4393 15.6667 82.2954 16.1174 82.2121 16.6364ZM89.7449 24.2727C89.4343 24.2727 89.1502 24.2481 88.8926 24.1989C88.635 24.1534 88.4229 24.0947 88.2562 24.0227L89.1085 22.2159C89.3774 22.303 89.6218 22.3485 89.8415 22.3523C90.0649 22.3561 90.2695 22.2992 90.4551 22.1818C90.6407 22.0644 90.8112 21.8712 90.9665 21.6023L91.1824 21.233L89.546 12.2727H92.0006L92.7392 18.6932H92.8301L95.7221 12.2727H98.3756L93.3812 21.9432C93.135 22.4167 92.8434 22.8277 92.5062 23.1761C92.1729 23.5246 91.7771 23.7936 91.3187 23.983C90.8642 24.1761 90.3396 24.2727 89.7449 24.2727Z" fill="#191919"/>
</svg>
