<svg width="135" height="32" viewBox="0 0 135 32" fill="none" xmlns="http://www.w3.org/2000/svg">
<rect x="4" y="3" width="131" height="29" rx="14.5" fill="black" fill-opacity="0.8"/>
<rect x="0.5" y="0.5" width="132" height="30" rx="15" fill="white" stroke="black"/>
<path d="M132 15.5C132 23.5081 125.508 30 117.5 30L100 30L100 0.999997L117.5 0.999999C125.508 0.999999 132 7.49187 132 15.5Z" fill="#FF018A"/>
<path d="M112.542 14.179C112.499 14.0033 112.431 13.8492 112.338 13.7166C112.245 13.5807 112.129 13.4664 111.99 13.3736C111.854 13.2775 111.695 13.2062 111.513 13.1598C111.334 13.1101 111.137 13.0852 110.921 13.0852C110.457 13.0852 110.061 13.1963 109.733 13.4183C109.408 13.6404 109.16 13.9602 108.987 14.3778C108.818 14.7955 108.734 15.2992 108.734 15.8892C108.734 16.4858 108.815 16.9962 108.977 17.4205C109.14 17.8447 109.382 18.1695 109.703 18.3949C110.025 18.6203 110.424 18.733 110.901 18.733C111.322 18.733 111.672 18.6716 111.95 18.549C112.232 18.4264 112.443 18.2524 112.582 18.027C112.721 17.8016 112.791 17.5365 112.791 17.2315L113.268 17.2812H110.941V15.3125H115.455V16.7244C115.455 17.6525 115.258 18.4463 114.864 19.1058C114.473 19.7621 113.932 20.2659 113.243 20.6172C112.557 20.9652 111.77 21.1392 110.881 21.1392C109.89 21.1392 109.02 20.9287 108.271 20.5078C107.522 20.0869 106.937 19.487 106.516 18.7081C106.099 17.9292 105.89 17.0028 105.89 15.929C105.89 15.0871 106.018 14.3414 106.273 13.6918C106.531 13.0421 106.889 12.4936 107.347 12.0462C107.804 11.5954 108.333 11.2557 108.933 11.027C109.532 10.795 110.175 10.679 110.862 10.679C111.465 10.679 112.025 10.7652 112.542 10.9375C113.062 11.1065 113.521 11.3485 113.919 11.6634C114.32 11.9749 114.643 12.3445 114.889 12.772C115.134 13.1996 115.283 13.6686 115.336 14.179H112.542ZM126.104 15.9091C126.104 17.0426 125.883 17.9988 125.443 18.7777C125.002 19.5533 124.407 20.1416 123.658 20.5426C122.909 20.9403 122.074 21.1392 121.152 21.1392C120.224 21.1392 119.386 20.9387 118.636 20.5376C117.891 20.1333 117.297 19.5433 116.857 18.7678C116.419 17.9889 116.2 17.036 116.2 15.9091C116.2 14.7756 116.419 13.821 116.857 13.0455C117.297 12.2666 117.891 11.6783 118.636 11.2805C119.386 10.8795 120.224 10.679 121.152 10.679C122.074 10.679 122.909 10.8795 123.658 11.2805C124.407 11.6783 125.002 12.2666 125.443 13.0455C125.883 13.821 126.104 14.7756 126.104 15.9091ZM123.26 15.9091C123.26 15.2992 123.179 14.7855 123.016 14.3679C122.857 13.947 122.62 13.6288 122.306 13.4134C121.994 13.1946 121.61 13.0852 121.152 13.0852C120.695 13.0852 120.309 13.1946 119.994 13.4134C119.682 13.6288 119.445 13.947 119.283 14.3679C119.124 14.7855 119.044 15.2992 119.044 15.9091C119.044 16.5189 119.124 17.0343 119.283 17.4553C119.445 17.8729 119.682 18.1911 119.994 18.4098C120.309 18.6252 120.695 18.733 121.152 18.733C121.61 18.733 121.994 18.6252 122.306 18.4098C122.62 18.1911 122.857 17.8729 123.016 17.4553C123.179 17.0343 123.26 16.5189 123.26 15.9091Z" fill="#191919"/>
<path d="M17.0441 22.488C13.4281 22.488 10.2601 20.248 10.2601 15.688C10.2601 10.68 13.9401 7.352 18.3241 7.352C22.1801 7.352 24.6441 9.96 24.6441 13.72C24.6441 17.016 22.4521 18.664 20.6441 18.664C19.6041 18.664 18.7721 18.184 18.5961 17.288H18.5641C18.0361 18.008 17.1241 18.52 16.3721 18.52C14.9961 18.52 14.0201 17.496 14.0201 15.816C14.0201 13.672 15.5561 11.416 17.6361 11.416C18.2601 11.416 18.7401 11.688 19.0441 12.328H19.0761L19.3321 11.56H20.7881L20.0041 15.48C19.7001 16.648 20.0041 17.192 20.8681 17.192C21.9881 17.192 23.1401 15.896 23.1401 13.784C23.1401 11.08 21.6201 8.792 18.1321 8.792C14.9801 8.792 11.8761 11.496 11.8761 15.64C11.8761 19.224 14.3241 21.032 17.2361 21.032C18.2121 21.032 19.2841 20.696 20.0521 20.296L20.5801 21.592C19.4921 22.2 18.3401 22.488 17.0441 22.488ZM16.8521 17.016C17.2841 17.016 17.6681 16.776 18.1961 16.12L18.6601 13.528C18.4201 13.128 18.1161 12.952 17.7161 12.952C16.5161 12.952 15.7961 14.504 15.7961 15.688C15.7961 16.6 16.2121 17.016 16.8521 17.016ZM25.5068 21L26.9613 12.2727H29.3818L27.9272 21H25.5068ZM28.4215 11.1364C28.0617 11.1364 27.7643 11.017 27.5295 10.7784C27.2984 10.536 27.2037 10.2481 27.2454 9.91477C27.2871 9.57386 27.4499 9.28598 27.734 9.05114C28.0181 8.8125 28.3401 8.69318 28.6999 8.69318C29.0598 8.69318 29.3534 8.8125 29.5806 9.05114C29.8079 9.28598 29.9026 9.57386 29.8647 9.91477C29.8268 10.2481 29.6659 10.536 29.3818 10.7784C29.1015 11.017 28.7814 11.1364 28.4215 11.1364ZM29.7072 21L31.1617 12.2727H33.4629L33.2129 13.8125H33.3095C33.5746 13.3011 33.9439 12.8977 34.4174 12.6023C34.8947 12.3068 35.4307 12.1591 36.0254 12.1591C36.6163 12.1591 37.0973 12.3087 37.4685 12.608C37.8435 12.9034 38.0595 13.3049 38.1163 13.8125H38.2072C38.4648 13.3125 38.853 12.9129 39.372 12.6136C39.8909 12.3106 40.4704 12.1591 41.1106 12.1591C41.9174 12.1591 42.5348 12.4186 42.9629 12.9375C43.3909 13.4564 43.5254 14.1875 43.3663 15.1307L42.389 21H39.9685L40.8776 15.608C40.9496 15.1193 40.8776 14.7557 40.6617 14.517C40.4458 14.2746 40.1447 14.1534 39.7583 14.1534C39.3189 14.1534 38.9534 14.2936 38.6617 14.5739C38.3701 14.8504 38.1901 15.2159 38.122 15.6705L37.2185 21H34.872L35.7924 15.5568C35.8568 15.125 35.7867 14.7841 35.5822 14.5341C35.3814 14.2803 35.0803 14.1534 34.6788 14.1534C34.4136 14.1534 34.1617 14.2216 33.9231 14.358C33.6882 14.4905 33.4894 14.678 33.3265 14.9205C33.1636 15.1591 33.0576 15.4394 33.0083 15.7614L32.122 21H29.7072ZM46.7158 18.4886L47.1988 15.5852H47.5511L50.909 12.2727H53.6874L49.2102 16.6591H48.6306L46.7158 18.4886ZM44.1079 21L46.0397 9.36364H48.4602L46.5283 21H44.1079ZM49.5624 21L47.6306 17.1989L49.5227 15.4886L52.3977 21H49.5624ZM56.8396 21.1705C55.9494 21.1705 55.2127 20.9811 54.6293 20.6023C54.046 20.2197 53.635 19.6894 53.3964 19.0114C53.1615 18.3295 53.118 17.536 53.2657 16.6307C53.4096 15.7367 53.7089 14.9545 54.1634 14.2841C54.618 13.6136 55.1956 13.0928 55.8964 12.7216C56.5971 12.3466 57.3869 12.1591 58.2657 12.1591C59.1521 12.1591 59.8869 12.3504 60.4702 12.733C61.0536 13.1117 61.4646 13.642 61.7032 14.3239C61.9418 15.0057 61.9873 15.7992 61.8396 16.7045C61.6918 17.5947 61.3888 18.375 60.9305 19.0455C60.4721 19.7159 59.8945 20.2386 59.1975 20.6136C58.5005 20.9848 57.7146 21.1705 56.8396 21.1705ZM57.0782 19.2955C57.4873 19.2955 57.849 19.1799 58.1634 18.9489C58.4816 18.714 58.7449 18.3958 58.9532 17.9943C59.1653 17.589 59.313 17.1307 59.3964 16.6193C59.4797 16.1155 59.4854 15.6686 59.4134 15.2784C59.3415 14.8845 59.1899 14.5739 58.9589 14.3466C58.7316 14.1193 58.4191 14.0057 58.0214 14.0057C57.6123 14.0057 57.2487 14.1231 56.9305 14.358C56.6123 14.589 56.349 14.9072 56.1407 15.3125C55.9324 15.7178 55.7865 16.178 55.7032 16.6932C55.6237 17.1932 55.618 17.6402 55.6862 18.0341C55.7543 18.4242 55.904 18.733 56.135 18.9602C56.3661 19.1837 56.6805 19.2955 57.0782 19.2955ZM64.0244 21L63.1039 12.2727H65.5528L65.9278 18.1364H66.0073L68.3937 12.2727H70.7971L71.2516 18.1023H71.3255L73.6323 12.2727H76.0755L72.2516 21H69.6891L69.0982 15.5114H68.9903L66.5812 21H64.0244ZM78.202 21.1648C77.649 21.1648 77.1698 21.0682 76.7645 20.875C76.363 20.678 76.0676 20.3864 75.8782 20C75.6888 19.6136 75.6414 19.1345 75.7361 18.5625C75.8195 18.0777 75.9767 17.6723 76.2077 17.3466C76.4426 17.017 76.7286 16.7519 77.0657 16.5511C77.4028 16.3504 77.7759 16.197 78.185 16.0909C78.5979 15.9848 79.024 15.9129 79.4634 15.875C79.971 15.822 80.3839 15.7708 80.702 15.7216C81.024 15.6723 81.2645 15.6023 81.4236 15.5114C81.5827 15.4167 81.6793 15.2765 81.7134 15.0909V15.0568C81.7702 14.7008 81.7039 14.4242 81.5145 14.2273C81.3289 14.0265 81.0316 13.9261 80.6225 13.9261C80.1907 13.9261 79.8233 14.0208 79.5202 14.2102C79.221 14.3996 79.007 14.6402 78.8782 14.9318L76.6736 14.75C76.8706 14.2197 77.168 13.7614 77.5657 13.375C77.9672 12.9848 78.4501 12.6856 79.0145 12.4773C79.5789 12.2652 80.2115 12.1591 80.9123 12.1591C81.3971 12.1591 81.8498 12.2159 82.2702 12.3295C82.6945 12.4432 83.06 12.6193 83.3668 12.858C83.6774 13.0966 83.9009 13.4034 84.0373 13.7784C84.1774 14.1496 84.2058 14.5947 84.1225 15.1136L83.1395 21H80.8441L81.0486 19.7898H80.9805C80.7948 20.0625 80.5676 20.303 80.2986 20.5114C80.0297 20.7159 79.721 20.8769 79.3725 20.9943C79.024 21.108 78.6339 21.1648 78.202 21.1648ZM79.1736 19.4943C79.5259 19.4943 79.8498 19.4242 80.1452 19.2841C80.4445 19.1402 80.6907 18.947 80.8839 18.7045C81.0808 18.4621 81.2058 18.1875 81.2589 17.8807L81.4066 16.9545C81.3308 17.0038 81.221 17.0473 81.077 17.0852C80.9369 17.1231 80.7835 17.1591 80.6168 17.1932C80.4539 17.2235 80.2892 17.2519 80.1225 17.2784C79.9558 17.3011 79.8062 17.3239 79.6736 17.3466C79.382 17.3883 79.1206 17.4545 78.8895 17.5455C78.6585 17.6364 78.471 17.7595 78.327 17.9148C78.1831 18.0663 78.0941 18.2557 78.06 18.483C78.007 18.8125 78.0846 19.0644 78.293 19.2386C78.5051 19.4091 78.7986 19.4943 79.1736 19.4943ZM88.1141 15.9545L87.2732 21H84.8584L86.313 12.2727H88.6141L88.3641 13.8125H88.4607C88.7372 13.3011 89.1274 12.8977 89.6312 12.6023C90.1387 12.3068 90.7164 12.1591 91.3641 12.1591C91.9702 12.1591 92.4759 12.2917 92.8812 12.5568C93.2903 12.822 93.5781 13.1989 93.7448 13.6875C93.9153 14.1761 93.9437 14.7614 93.83 15.4432L92.8982 21H90.4778L91.3357 15.875C91.4228 15.3409 91.3546 14.9242 91.1312 14.625C90.9115 14.322 90.5573 14.1705 90.0687 14.1705C89.7429 14.1705 89.4437 14.2405 89.1709 14.3807C88.8982 14.5208 88.669 14.7254 88.4834 14.9943C88.3016 15.2595 88.1785 15.5795 88.1141 15.9545Z" fill="#191919"/>
</svg>
