<svg width="42" height="42" viewBox="0 0 42 42" fill="none" xmlns="http://www.w3.org/2000/svg">
<circle cx="21" cy="21" r="21" fill="white"/>
<path d="M26.9731 25.3067C26.1556 25.3067 25.4242 25.6294 24.8649 26.135L17.1957 21.6712C17.2495 21.4238 17.2925 21.1764 17.2925 20.9182C17.2925 20.6601 17.2495 20.4127 17.1957 20.1653L24.7788 15.7445C25.3596 16.2823 26.1233 16.6158 26.9731 16.6158C28.7586 16.6158 30.1999 15.1745 30.1999 13.3889C30.1999 11.6034 28.7586 10.1621 26.9731 10.1621C25.1875 10.1621 23.7462 11.6034 23.7462 13.3889C23.7462 13.6471 23.7892 13.8945 23.843 14.1419L16.26 18.5626C15.6791 18.0248 14.9154 17.6914 14.0657 17.6914C12.2802 17.6914 10.8389 19.1327 10.8389 20.9182C10.8389 22.7038 12.2802 24.1451 14.0657 24.1451C14.9154 24.1451 15.6791 23.8116 16.26 23.2738L23.9183 27.7484C23.8645 27.9743 23.8323 28.2109 23.8323 28.4475C23.8323 30.1793 25.2413 31.5883 26.9731 31.5883C28.7048 31.5883 30.1138 30.1793 30.1138 28.4475C30.1138 26.7158 28.7048 25.3067 26.9731 25.3067Z" fill="#191919"/>
</svg>
